PathFileType	4	(X/Y/Z)	/Users/niels/Desktop/University/Third Semester/Perception and Action/Exam/Gymnastics Motion Tracking/Code for Gym Tracking/Analyzed Data/Webcam_Backflip/id1_1_baseline_Sports2D/id1_1_baseline_Sports2D_px_person00.trc
DataRate	CameraRate	NumFrames	NumMarkers	Units	OrigDataRate	OrigDataStartFrame	OrigNumFrames
29.872340425531917	29.872340425531917	8	22	m	29.872340425531917	29	235
Frame#	Time	Hip			RHip			RKnee			RAnkle			RBigToe			RSmallToe			RHeel			LHip			LKnee			LAnkle			LBigToe			LSmallToe			LHeel			Neck			Head			Nose			RShoulder			RElbow			RWrist			LShoulder			LElbow			LWrist		
		X1	Y1	Z1	X2	Y2	Z2	X3	Y3	Z3	X4	Y4	Z4	X5	Y5	Z5	X6	Y6	Z6	X7	Y7	Z7	X8	Y8	Z8	X9	Y9	Z9	X10	Y10	Z10	X11	Y11	Z11	X12	Y12	Z12	X13	Y13	Z13	X14	Y14	Z14	X15	Y15	Z15	X16	Y16	Z16	X17	Y17	Z17	X18	Y18	Z18	X19	Y19	Z19	X20	Y20	Z20	X21	Y21	Z21	X22	Y22	Z22
29	0.9707977207977209	0.9366110242350041	-0.6763356999325383	0.0	0.9394242511437305	-0.6768528407008892	0.0	0.9904662429171156	-0.775412832810904	0.0	0.9511591496085161	-0.8683076989574652	0.0	0.9837886732336866	-0.8832638229537649	0.0	0.973699579112961	-0.8876676188023727	0.0	0.9383824226216917	-0.8778513989656679	0.0	0.9318923618602712	-0.6740674010995994	0.0	0.9762094354764116	-0.7710644114364885	0.0	0.9464350881809718	-0.8622277134949121	0.0	0.9827120735554923	-0.8332035733828552	0.0	0.967198836557708	-0.8775893481995678	0.0	0.9345656097695763	-0.875412658525719	0.0	0.9812539607024754	-0.5343471360804851	0.0	0.9913101923820326	-0.46112585293267433	0.0	1.0111973874507725	-0.49383431244520926	0.0	0.9758773591992668	-0.5463808293498964	0.0	1.0143120020179293	-0.566969270355548	0.0	1.0583340308844573	-0.557485299245482	0.0	0.9763368968749729	-0.5433904259899185	0.0	1.01499255387133	-0.5671985620505533	0.0	1.0594280386025912	-0.5583702232207582	0.0
30	1.0042735042735043	0.9444693205329245	-0.6643427179937634	0.0	0.9475319512349359	-0.6645090878338483	0.0	0.9862593048380938	-0.7684034208437522	0.0	0.9511135397853976	-0.8642067082329905	0.0	0.9804949634021299	-0.8815264208446209	0.0	0.9707677444536332	-0.8860670570116966	0.0	0.9386291373875566	-0.8755328113545036	0.0	0.9394587639638905	-0.6618954200095243	0.0	0.9729606272870274	-0.7654022367343185	0.0	0.9480594649578828	-0.8628022521796794	0.0	0.9773482913360194	-0.8537494832008339	0.0	0.9645824240597687	-0.8769128926388511	0.0	0.9348932278654909	-0.8732588088941405	0.0	0.9715202540642475	-0.5197738921455933	0.0	0.970608213831086	-0.4437336240680525	0.0	0.9950430150922475	-0.4769345976640477	0.0	0.9691462509431223	-0.5282317235524188	0.0	1.011528653808708	-0.5215163916005616	0.0	1.0511737653544302	-0.4918972179468719	0.0	0.9680030865929422	-0.5258935469076446	0.0	1.0125094649141257	-0.5245278993719132	0.0	1.0527963211768536	-0.49494410570865277	0.0
31	1.0377492877492878	0.9539324975126027	-0.6423796870670477	0.0	0.9573344880221888	-0.6425163313097191	0.0	0.9845449978683445	-0.751344478483454	0.0	0.9522487332310813	-0.8506996087051231	0.0	0.9768525431242352	-0.8722634520984879	0.0	0.9679307692786588	-0.8763948413510371	0.0	0.9401253087516929	-0.8637983168147467	0.0	0.9485429620182618	-0.6400674632863803	0.0	0.9728440273173444	-0.7497295133876041	0.0	0.9503113122162296	-0.8521586056719066	0.0	0.9742993984872881	-0.8614091260610545	0.0	0.9645318431888403	-0.8686936232152757	0.0	0.9368643726826215	-0.861828939229496	0.0	0.9612193730882226	-0.49756225613906313	0.0	0.9482926508127777	-0.42054241700679906	0.0	0.9771202628782911	-0.452794572386685	0.0	0.9613430857354421	-0.5020401371703483	0.0	0.9989487258768552	-0.4681645761003506	0.0	1.027181359770941	-0.4227824136275012	0.0	0.9583748350056325	-0.5004473452720825	0.0	1.0002784021312305	-0.4735316973174374	0.0	1.0298854450477635	-0.4265553318508807	0.0
32	1.0712250712250713	0.9638891665699235	-0.6116934419430413	0.0	0.9673619630272078	-0.6122667797599517	0.0	0.9875204800918137	-0.7243280752165668	0.0	0.9558632462243387	-0.827095834775465	0.0	0.9748050966958424	-0.8546441720807962	0.0	0.966704075914399	-0.8577699888777564	0.0	0.9440728361980006	-0.8414441177491991	0.0	0.9583822293372302	-0.6100109173069536	0.0	0.9775467954923278	-0.7240494877403034	0.0	0.9546945694208105	-0.8305965348120473	0.0	0.97512214227966	-0.8543545089221546	0.0	0.9678313214545657	-0.85215054586306	0.0	0.9415058099119787	-0.8403415197288636	0.0	0.9499648316174616	-0.4687909800102447	0.0	0.9243605775528371	-0.3930803535166299	0.0	0.9573442876890887	-0.42246331219281347	0.0	0.9518382651445056	-0.46971249881219956	0.0	0.9789000513907016	-0.4134895117276274	0.0	0.9932620164733665	-0.35808949800215856	0.0	0.947633508708041	-0.4687201119339303	0.0	0.9807710617308815	-0.4202527290838001	0.0	0.9970255628294374	-0.36107375299039784	0.0
33	1.1047008547008548	0.9729628447429213	-0.5750558428726547	0.0	0.9760984988245934	-0.5764554123759256	0.0	0.9969470038933035	-0.6880458850015662	0.0	0.963493573892182	-0.7934110002627813	0.0	0.9768011888279485	-0.8278418291123791	0.0	0.9693468416400496	-0.8295084467521393	0.0	0.951817892611417	-0.8080989613911559	0.0	0.9679183515115239	-0.5743783202132121	0.0	0.988216857765849	-0.6889487537971397	0.0	0.962644742069812	-0.798724235413754	0.0	0.9803696989421389	-0.8330508365789858	0.0	0.9746827809150193	-0.8265929961098979	0.0	0.9497840805681407	-0.808628598873954	0.0	0.9374610118884851	-0.43565407456923416	0.0	0.8994913765866391	-0.3636289234596003	0.0	0.9363653278544675	-0.38825084257351505	0.0	0.9404126113701876	-0.43410008837800723	0.0	0.9555213759413294	-0.36296523796590985	0.0	0.9573491624035029	-0.30265371627812726	0.0	0.936148080031453	-0.43325540624732584	0.0	0.9579418459976566	-0.36976365541940126	0.0	0.9614323107418482	-0.3040125965182018	0.0
34	1.1381766381766383	0.9798851323555071	-0.5360357759091816	0.0	0.9824251663078633	-0.538371829745983	0.0	1.0129079682526636	-0.6433910097817604	0.0	0.9763684454723688	-0.7503597879532564	0.0	0.9850268583086265	-0.7909737756540145	0.0	0.9781524193993179	-0.7910609199955374	0.0	0.9644433059603944	-0.7644424724476926	0.0	0.9759187821951917	-0.5363158186992772	0.0	1.0045437982508956	-0.6450029993006294	0.0	0.9752040496665377	-0.756971396469379	0.0	0.9904036388042652	-0.7981620557526266	0.0	0.9855141625944092	-0.7909800012148239	0.0	0.9624913205461053	-0.7668661694904283	0.0	0.9238301328286966	-0.4009705771197853	0.0	0.8750686594068658	-0.33455681927783704	0.0	0.9154266809420761	-0.3531003468655792	0.0	0.9274956044768633	-0.3983253349319114	0.0	0.9336196454767184	-0.31997821401062815	0.0	0.9267772885996737	-0.2582308513089651	0.0	0.9242744502647445	-0.3970095120828461	0.0	0.9361386502173862	-0.3254337849050775	0.0	0.9298584672813883	-0.25810468981374524	0.0
35	1.1716524216524218	0.9839068063470537	-0.4981319807572918	0.0	0.9858956168824131	-0.5012941321426109	0.0	1.0330244188838467	-0.591353878033568	0.0	0.9947280438518293	-0.6992682568484068	0.0	1.0008334064794655	-0.74335397916353	0.0	0.9946848577441404	-0.7422473029159238	0.0	0.9822707793780892	-0.7122309815761498	0.0	0.9813270646261546	-0.4988457162320944	0.0	1.0241471766517793	-0.5927618637325061	0.0	0.9925961761983385	-0.7056252305747128	0.0	1.005814116478458	-0.7498135215283206	0.0	1.0011914847651557	-0.7439715347366385	0.0	0.9799699863565188	-0.7155342140547476	0.0	0.9097867619961774	-0.3676782788049911	0.0	0.8527189695664397	-0.30782944487711406	0.0	0.8959067793894062	-0.31989376565740163	0.0	0.914213080715108	-0.36520601776892336	0.0	0.9172426429763847	-0.2859999216406932	0.0	0.9070008109273147	-0.22444792111319264	0.0	0.9123971796112034	-0.36297428750149585	0.0	0.9190915044369927	-0.2892355595728458	0.0	0.9078377370114082	-0.22389669011338376	0.0
36	1.2051282051282053	0.9851657722491701	-0.4639598890048473	0.0	0.9869566627726456	-0.4678203076557027	0.0	1.0528981676302867	-0.5332395340457814	0.0	1.017412252112261	-0.6416887530995224	0.0	1.0240047457049821	-0.6848574532082523	0.0	1.018935567771814	-0.6834589420010919	0.0	1.0046437172899785	-0.6537838910686375	0.0	0.9838012791766444	-0.46426770308096843	0.0	1.0428155854914827	-0.5334362244561238	0.0	1.013830855551802	-0.6455765049653187	0.0	1.026544777703364	-0.6883692945386009	0.0	1.0220489606340837	-0.6848992226037779	0.0	1.0016953281834242	-0.6559212140749117	0.0	0.8964211772311693	-0.33850296947255837	0.0	0.8336728502791713	-0.2851080103275834	0.0	0.8788362696884248	-0.29117464255182157	0.0	0.9020419102057587	-0.33705773869904515	0.0	0.9087445874615734	-0.26165355454166966	0.0	0.9006155927527061	-0.2005684550531679	0.0	0.9010000517914307	-0.33385805958829823	0.0	0.9090542689848896	-0.2624571940300956	0.0	0.8984231003278543	-0.20110245075788313	0.0
